<svg width="773" height="650" viewBox="0 0 773 650" fill="none" xmlns="http://www.w3.org/2000/svg">
<path opacity="0.1" d="M119.38 649.3C173.195 649.3 216.82 642.293 216.82 633.65C216.82 625.007 173.195 618 119.38 618C65.5654 618 21.94 625.007 21.94 633.65C21.94 642.293 65.5654 649.3 119.38 649.3Z" fill="#0091D5"/>
<path opacity="0.1" d="M649.05 649.74C716.202 649.74 770.64 642.733 770.64 634.09C770.64 625.447 716.202 618.44 649.05 618.44C581.898 618.44 527.46 625.447 527.46 634.09C527.46 642.733 581.898 649.74 649.05 649.74Z" fill="#0091D5"/>
<path opacity="0.1" d="M444.88 61.5601H381.96V200.91H444.88V61.5601Z" fill="#0091D5"/>
<path opacity="0.1" d="M444.89 205.19V343.53H132.58V283.86H298.93V319.06H381.96V205.19H444.89Z" fill="#0091D5"/>
<path opacity="0.1" d="M445.88 496.13H444.88V586.88C433.613 585.927 422.38 584.63 411.18 582.99C360.756 575.608 311.601 561.264 265.12 540.37C251.7 534.33 238.553 527.737 225.68 520.59C204.176 508.677 183.575 495.204 164.04 480.28C159.133 476.52 154.29 472.673 149.51 468.74C146.2 466.01 142.91 463.21 139.58 460.49C137.27 458.62 134.94 456.78 132.58 455.02V347.81H381.13C380.96 347.17 380.79 346.53 380.61 345.9C380.8 346.53 380.98 347.17 381.15 347.81H444.88V496.07C445.22 496.08 445.55 496.11 445.88 496.13Z" fill="#0091D5"/>
<path opacity="0.1" d="M608.98 51.1802H567.98V38.4402H586.36V0.490234C587.953 1.07023 589.54 1.66691 591.12 2.28024V38.4402H608.98V51.1802Z" fill="#0091D5"/>
<path opacity="0.1" d="M707.76 200.92H506.48C506.48 200.92 506.48 200.92 506.55 200.97L506.46 200.92H469.12V61.57H479.7V164.57H528.05V103.57H567.99V55.46H608.99V103.61H648.93V164.61H707.76V200.92Z" fill="#0091D5"/>
<path opacity="0.1" d="M469.12 205.19V343.53H707.76V205.19H469.12ZM772.54 506.37L772.87 396.87H707.76V347.87H469.12V588.37C488.685 589.192 508.28 588.958 527.82 587.67V587.67H528.16C537.493 587.083 546.783 586.23 556.03 585.11H556.24C605.571 579.369 653.807 566.498 699.44 546.9" fill="#0091D5"/>
<path opacity="0.1" d="M444.89 100.3H411.18V143.99H444.89V100.3Z" fill="#0091D5"/>
<path opacity="0.1" d="M444.89 190.86H411.18V200.92H444.89V190.86Z" fill="#0091D5"/>
<path opacity="0.1" d="M444.89 205.19H411.18V234.54H444.89V205.19Z" fill="#0091D5"/>
<path opacity="0.1" d="M444.89 281.42H411.18V325.11H444.89V281.42Z" fill="#0091D5"/>
<path opacity="0.1" d="M444.89 371.98H411.18V415.67H444.89V371.98Z" fill="#0091D5"/>
<path opacity="0.1" d="M444.88 496.07C445.22 496.07 445.55 496.07 445.88 496.13H444.88V506.28H411.18V462.54H444.88V496.07Z" fill="#0091D5"/>
<path opacity="0.1" d="M444.88 553.08V586.83C433.613 585.877 422.38 584.58 411.18 582.94V553.08H444.88Z" fill="#0091D5"/>
<path opacity="0.1" d="M277.05 340.32H132.58V343.53H277.05V340.32Z" fill="#0091D5"/>
<path opacity="0.1" d="M277.05 347.8H132.58V360.1H277.05V347.8Z" fill="#0091D5"/>
<path opacity="0.1" d="M277.05 400.42H132.58V420.2H277.05V400.42Z" fill="#0091D5"/>
<path opacity="0.1" d="M277.04 460.52V480.3H164.04C159.133 476.553 154.287 472.707 149.5 468.76C146.19 466.03 142.91 463.23 139.57 460.52H277.04Z" fill="#0091D5"/>
<path opacity="0.1" d="M277.04 520.61V540.37H265.11C251.703 534.323 238.56 527.727 225.68 520.58L277.04 520.61Z" fill="#0091D5"/>
<path opacity="0.1" d="M556.27 218.6H527.83V247.04H556.27V218.6Z" fill="#0091D5"/>
<path opacity="0.1" d="M664.84 218.6H636.4V247.04H664.84V218.6Z" fill="#0091D5"/>
<path opacity="0.1" d="M556.27 288.75H527.83V317.19H556.27V288.75Z" fill="#0091D5"/>
<path opacity="0.1" d="M664.84 288.75H636.4V317.19H664.84V288.75Z" fill="#0091D5"/>
<path opacity="0.1" d="M556.27 358.89H527.83V387.33H556.27V358.89Z" fill="#0091D5"/>
<path opacity="0.1" d="M664.84 358.89H636.4V387.33H664.84V358.89Z" fill="#0091D5"/>
<path opacity="0.1" d="M556.27 429.04H527.83V457.48H556.27V429.04Z" fill="#0091D5"/>
<path opacity="0.1" d="M664.84 429.04H636.4V457.48H664.84V429.04Z" fill="#0091D5"/>
<path opacity="0.1" d="M556.27 499.19H527.83V527.63H556.27V499.19Z" fill="#0091D5"/>
<path opacity="0.1" d="M664.84 499.19H636.4V527.63H664.84V499.19Z" fill="#0091D5"/>
<path opacity="0.1" d="M527.83 587.67V569.33H556.26V585.06L527.83 587.67Z" fill="#0091D5"/>
<path d="M213.6 246.67C213.6 246.67 209.66 246.12 209.66 240.38C209.66 234.64 206.84 223.92 206.84 223.92C206.84 223.87 204.4 205.25 201.03 202.29C197.66 199.33 193.33 181.95 193.33 181.95C193.33 181.95 192.59 172.52 191.08 170.49C189.57 168.46 187.53 163.49 184.52 156.4C181.51 149.31 168.96 144.4 168.96 144.4C168.96 144.4 146.27 131.24 139.84 126.95C139.256 126.597 138.709 126.185 138.21 125.72C137.09 124.25 132.21 124.22 132.21 124.22C131.7 121 131.21 117.3 131.05 113.95C131.05 113.59 131.05 113.23 131 112.87C138.17 108.632 143.57 101.949 146.21 94.0499C146.33 93.6699 146.43 93.2699 146.54 92.8899C146.97 92.7484 147.365 92.5188 147.701 92.2157C148.037 91.9127 148.305 91.5428 148.49 91.1299C149.07 89.8399 149.08 88.3299 149.8 87.1299C150.64 85.7099 152.24 84.9499 153.5 83.8799C156.68 81.1799 157.5 76.6299 157.35 72.4899C157.25 69.1399 156.71 65.7599 156.92 62.4299L156.98 61.5899C157.04 61.0899 157.11 60.5899 157.2 60.1099C157.69 57.6299 158.76 55.2899 159.36 52.8299C159.96 50.3699 160.02 47.5999 158.62 45.4799C156.57 42.3699 152.3 41.7499 148.55 41.4299C144.3 41.0699 140.5 41.5399 137.78 38.0099C136.507 36.1649 135.075 34.435 133.5 32.8399C132.94 32.3199 127.5 28.9999 127.5 28.7799C122.191 26.3208 116.172 25.8593 110.55 27.4799C107.73 28.2999 105.07 29.6399 102.21 30.3099C96.04 31.7699 88.94 30.1899 83.7 33.7199C80.78 35.7199 79.03 38.8999 77.39 41.9999C76.0567 44.5533 74.7034 47.1032 73.33 49.6499C71.12 53.8399 68.87 58.0999 67.94 62.7399C67.7444 63.7496 67.6241 64.7724 67.58 65.7999V65.8499C67.58 66.2199 67.58 66.5899 67.58 66.9599V67.4299C67.58 67.7799 67.58 68.1199 67.64 68.4299C67.7 68.7399 67.69 68.8399 67.72 69.0499C67.75 69.2599 67.8 69.7299 67.86 70.0499C67.92 70.3699 68.04 70.9299 68.16 71.3699C68.21 71.5599 68.28 71.7399 68.34 71.9199C68.44 72.2599 68.56 72.5899 68.69 72.9199C68.76 73.0899 68.83 73.2699 68.91 73.4399C69.06 73.7899 69.24 74.1299 69.42 74.4399C69.5 74.5799 69.56 74.7099 69.64 74.8399C69.919 75.305 70.2262 75.7525 70.56 76.1799C72.7 78.8499 75.85 80.5499 78.18 83.0499C78.18 83.1499 78.18 83.2499 78.18 83.3399C78.18 83.6199 78.18 83.8899 78.18 84.1699C78.3036 89.7454 79.7876 95.2063 82.503 100.078C85.2183 104.949 89.0827 109.083 93.76 112.12C93.76 112.5 93.81 112.89 93.83 113.27C94.025 116.238 93.9882 119.217 93.72 122.18C93.3128 121.7 92.8031 121.318 92.2284 121.062C91.6538 120.806 91.0289 120.682 90.4 120.7C89.9704 120.679 89.5398 120.716 89.12 120.81L89.03 120.74V120.83C86.83 121.37 84.12 123.66 81.53 130.17C81.53 130.17 73.65 139.05 67.65 138.68C61.65 138.31 46.46 147.92 46.46 147.92C46.46 147.92 31.64 157.54 28.46 167.34C26.6825 172.897 24.5515 178.335 22.08 183.62L3.76001 221.37L0.380005 251.32C0.380005 251.32 2.25 264.64 1.88 266.67C1.51 268.7 9.57001 287.01 9.57001 287.01C9.57001 287.01 36.2 333.8 47.08 336.2L47.86 335.65C48.3255 335.893 48.8192 336.078 49.33 336.2L51.57 334.62C51.7045 336.381 51.6475 338.151 51.4 339.9C49.9 344.52 51.96 374.67 54.58 380.58C57.2 386.49 56.27 463.98 56.27 463.98L55.9 470.82C55.9 470.82 55.9 471.04 55.99 471.42L55.9 473.04L56.17 473.18C56.4504 475.349 56.3591 477.551 55.9 479.69C54.96 482.69 54.58 491.17 54.58 491.17C54.58 491.17 47.09 539.05 50.64 548.67C54.19 558.29 57.21 568.83 57.21 568.83C57.21 568.83 60.96 580.83 57.39 582.88C53.82 584.93 43.67 588.37 45.76 593.37C47.66 597.99 54.87 610.37 55.94 612.18L55.85 613.13L54.38 629.06C54.618 631.163 55.1885 633.215 56.07 635.14C57.68 638.61 60.81 642.21 66.76 641.82C67.76 641.75 68.92 641.63 70.04 641.48C80.93 640.02 94.34 635.16 94.34 635.16C93.6438 634.718 93.0055 634.19 92.44 633.59V633.59C91.9047 633.071 91.4806 632.449 91.1935 631.762C90.9064 631.074 90.7623 630.335 90.77 629.59C90.93 626.69 85.5 612.87 84.15 609.47C83.94 608.98 83.83 608.7 83.83 608.7C83.83 608.7 96.21 595.76 94.15 584.29C94.15 584.29 80.45 576.29 84.96 571.9C89.47 567.51 97.53 554.9 97.53 554.9C97.53 554.9 97.9 507.75 97.53 500.71C97.1441 495.824 97.3759 490.908 98.22 486.08C98.37 485.35 98.55 484.64 98.74 483.94C104.977 484.871 111.274 485.349 117.58 485.37C119.88 485.37 122.22 485.37 124.58 485.23C124.58 485.897 124.61 486.617 124.67 487.39C125.19 499.07 126.16 519.55 126.95 527.16C128.07 538.07 134.26 567.47 134.26 567.47C134.26 567.47 122.45 575.05 136.32 593.73C136.32 593.73 136.32 600.5 135.4 601.48C134.418 604.684 133.626 607.943 133.03 611.24C132.45 614.76 132.21 618.32 133.15 620.17C135.4 624.59 148.9 624.23 148.9 624.23L149.23 624.17C151.779 623.906 154.354 624.152 156.807 624.892C159.26 625.632 161.542 626.851 163.52 628.48C168.65 632.6 188.12 630.79 198.66 629.48C202.79 628.96 205.55 628.48 205.55 628.48C205.684 628.012 205.731 627.524 205.69 627.04C205.58 624.45 203.55 618.77 189.79 613.7C189.79 613.7 176.85 605 177.03 597.42H176.76H175.26C176.35 597.36 177.05 597.42 177.05 597.42C177.05 597.42 171.98 578.92 174.05 577.42C176.12 575.92 169.92 555.42 169.92 555.42C169.92 555.42 166.37 521.02 166.18 518.61C166.188 516.542 166.501 514.486 167.11 512.51L166.18 493.65C166.18 493.65 166 487.38 166.18 485.34C166.15 483.569 166.006 481.802 165.75 480.05C165.66 479.35 165.57 478.62 165.47 477.9C170.32 476.67 173.47 475.53 173.47 475.53L172.91 409.88C177.03 401.88 177.79 384.33 177.77 371.88C177.77 363.88 177.41 357.96 177.41 357.96L183.04 348.77C183.04 348.77 184.34 337.77 182.28 335.36C181.37 334.27 181.78 333.14 182.53 332.21C182.92 331.901 183.331 331.62 183.76 331.37C183.76 331.37 183.7 331.28 183.63 331.15C184.023 330.822 184.441 330.524 184.88 330.26C184.88 330.26 182.88 327.16 184.67 325.85C186.35 326.99 187.85 327.85 188.99 328.55C188.91 329.28 188.83 329.7 188.83 329.7L189.31 328.7C190.41 329.32 191.08 329.7 191.08 329.7C191.08 329.7 199.9 312.13 199.71 309.54C199.52 306.95 205.71 296.04 205.71 296.04C205.71 296.04 206.46 290.31 209.84 287.91C213.22 285.51 212.46 268.12 212.46 268.12C212.46 268.12 213.4 259.06 215.65 255.36C217.9 251.66 213.6 246.67 213.6 246.67ZM44.84 238.96L45.01 243.15C44.01 241.54 43.29 240.38 43.29 240.38L44.84 238.96Z" fill="url(#paint0_linear)"/>
<path d="M191.56 322.11L189.4 331.31C189.4 331.31 172.1 322.48 168.98 311.26C165.86 300.04 174.2 295.78 174.2 295.78L190.32 302.61L191.56 322.11Z" fill="white"/>
<path opacity="0.1" d="M191.56 322.11L189.4 331.31C189.4 331.31 172.1 322.48 168.98 311.26C165.86 300.04 174.2 295.78 174.2 295.78L190.32 302.61L191.56 322.11Z" fill="black"/>
<path d="M94.47 635.22C94.47 635.22 78.47 641.1 67.47 641.84C61.63 642.23 58.56 638.65 56.98 635.2C56.1169 633.282 55.5601 631.241 55.33 629.15L56.76 613.3L57.52 604.86L80.89 598.79L84.2 608.91L84.51 609.68C85.84 613.06 91.17 626.81 91.01 629.68C91.0035 630.415 91.1454 631.144 91.4272 631.822C91.709 632.501 92.1249 633.116 92.65 633.63C93.1866 634.235 93.7982 634.77 94.47 635.22V635.22Z" fill="white"/>
<path d="M203.76 627.16C203.8 627.641 203.753 628.126 203.62 628.59C203.62 628.59 169.4 634.3 162.4 628.59C160.426 626.922 158.126 625.685 155.646 624.958C153.166 624.232 150.562 624.031 148 624.37C148 624.37 134.76 624.73 132.55 620.37C131.63 618.54 131.87 614.99 132.44 611.49C133.022 608.211 133.796 604.968 134.76 601.78L135.29 601.36L138.44 598.83L175.32 597.74H175.6C175.42 605.28 188.12 613.93 188.12 613.93C201.61 618.93 203.6 624.58 203.76 627.16Z" fill="white"/>
<path opacity="0.1" d="M203.76 627.16C203.795 627.642 203.744 628.126 203.61 628.59C203.61 628.59 169.4 634.3 162.4 628.59C160.428 626.923 158.129 625.687 155.651 624.96C153.173 624.234 150.57 624.033 148.01 624.37C148.01 624.37 134.76 624.73 132.56 620.37C131.64 618.53 131.87 614.99 132.44 611.49C137.54 612 145.59 613.27 148.75 616.3C153.53 620.91 161.63 625.51 166.6 625.87C170.49 626.12 193.76 626.86 203.76 627.16Z" fill="black"/>
<path opacity="0.1" d="M94.47 635.22C94.47 635.22 78.47 641.1 67.47 641.84C61.63 642.23 58.56 638.65 56.99 635.19C61.06 636.56 66.71 638 69.68 636.68C73.2 635.12 85.68 634.11 92.68 633.68C93.2128 634.263 93.8137 634.78 94.47 635.22V635.22Z" fill="black"/>
<path d="M118.21 161.37C105.01 156.24 88.03 139.29 92.27 131.37C93.2117 129.372 93.7713 127.214 93.92 125.01C94.1928 122.018 94.2329 119.009 94.04 116.01C93.7427 111.099 93.1517 106.21 92.27 101.37C92.27 101.37 133.48 102.3 131.08 108.37C130.38 110.15 130.27 113.24 130.46 116.7C130.65 120.16 131.15 124.07 131.67 127.38C132.39 131.92 133.11 135.38 133.11 135.38C133.11 135.38 130.59 138.91 129.11 139.1C127.63 139.29 137.15 168.68 118.21 161.37Z" fill="#CF6F80"/>
<path opacity="0.1" d="M84.48 609.68L84.17 610.02C71.85 595.12 56.95 613.69 56.95 613.69L56.73 613.3L57.49 604.86L80.86 598.79L84.17 608.91L84.48 609.68Z" fill="black"/>
<path opacity="0.1" d="M175.61 598.79C175.61 598.79 166.61 598.6 161.81 602.84C157.01 607.08 133.81 603.76 134.81 602.84C135.106 602.384 135.285 601.862 135.33 601.32L138.48 598.79L175.36 597.7C175.5 598.37 175.61 598.79 175.61 598.79Z" fill="black"/>
<path d="M99.81 481.78C99.1397 483.437 98.6307 485.155 98.29 486.91C97.4561 491.716 97.2243 496.607 97.6 501.47C97.97 508.47 97.6 555.38 97.6 555.38C97.6 555.38 89.69 567.89 85.28 572.3C80.87 576.71 94.28 584.63 94.28 584.63C96.28 596.03 84.16 608.91 84.16 608.91C71.84 594.01 56.94 612.59 56.94 612.59C56.94 612.59 48.84 598.59 46.82 593.59C44.8 588.59 54.73 585.13 58.22 583.1C61.71 581.07 58.05 569.1 58.05 569.1C58.05 569.1 55.1 558.61 51.6 549.04C48.1 539.47 55.46 491.83 55.46 491.83C55.46 491.83 55.84 483.37 56.75 480.42C57.2092 478.291 57.3005 476.099 57.02 473.94C56.96 473.21 56.89 472.6 56.84 472.19C56.79 471.78 56.75 471.59 56.75 471.59L56.89 471.35L61.89 462.03C61.89 462.03 102.21 475.91 99.81 481.78Z" fill="#0091D5"/>
<path d="M175.61 597.69C175.61 597.69 166.61 597.5 161.81 601.69C157.01 605.88 133.81 602.61 134.81 601.69C135.81 600.77 135.73 593.96 135.73 593.96C122.12 575.38 133.73 567.84 133.73 567.84C133.73 567.84 127.65 538.59 126.55 527.74C125.78 520.16 124.83 499.79 124.32 488.16C124.1 483.16 123.97 479.72 123.97 479.72L135.09 477.48L136.52 477.19L163.34 471.81C163.34 471.81 164.08 476.81 164.58 480.9C164.829 482.646 164.97 484.406 165 486.17C164.82 488.17 165 494.43 165 494.43L165.91 513.2C165.315 515.169 165.009 517.213 165 519.27C165.18 521.66 168.67 555.88 168.67 555.88C168.67 555.88 174.74 576.3 172.67 577.77C170.6 579.24 175.61 597.69 175.61 597.69Z" fill="#0091D5"/>
<path opacity="0.1" d="M131.08 108.37C130.38 110.15 130.27 113.24 130.46 116.7C124.94 120.024 118.594 121.724 112.152 121.603C105.71 121.483 99.432 119.548 94.04 116.02C93.7431 111.106 93.1521 106.214 92.27 101.37C92.27 101.37 133.48 102.28 131.08 108.37Z" fill="black"/>
<path d="M147.01 86.2698C147.018 89.8733 146.451 93.455 145.33 96.8798C142.825 104.553 137.687 111.094 130.826 115.346C123.964 119.599 115.82 121.288 107.833 120.117C99.8466 118.945 92.5311 114.988 87.1798 108.944C81.8285 102.901 78.786 95.1597 78.59 87.0898C78.59 86.8098 78.59 86.5498 78.59 86.2698C78.5123 81.7274 79.34 77.215 81.0246 72.9958C82.7092 68.7766 85.217 64.9351 88.4019 61.6953C91.5867 58.4556 95.3848 55.8824 99.5746 54.1259C103.764 52.3695 108.262 51.4648 112.805 51.4648C117.348 51.4648 121.846 52.3695 126.035 54.1259C130.225 55.8824 134.023 58.4556 137.208 61.6953C140.393 64.9351 142.901 68.7766 144.585 72.9958C146.27 77.215 147.098 81.7274 147.02 86.2698H147.01Z" fill="#CF6F80"/>
<path opacity="0.1" d="M118.21 161.37C105.01 156.24 88.03 139.29 92.27 131.37C93.2117 129.371 93.7713 127.214 93.92 125.01L111.99 139.86L123.17 149.03L131.67 127.39C132.39 131.93 133.11 135.39 133.11 135.39C133.11 135.39 130.59 138.92 129.11 139.11C127.63 139.3 137.15 168.68 118.21 161.37Z" fill="black"/>
<path d="M164.94 227L149.85 480.5L130.17 481.79L79.21 334.8L87.57 160.29L89.33 123.42L111.99 142.03L123.18 151.2L131.93 128.93L148.2 143.11L164.94 227Z" fill="#0091D5"/>
<path opacity="0.1" d="M99.81 481.78C99.1397 483.437 98.6307 485.155 98.29 486.91C83.9699 484.699 70.062 480.354 57.03 474.02L56.76 473.88L56.85 472.27L56.9 471.43L61.9 462.11C61.9 462.11 102.21 475.91 99.81 481.78Z" fill="black"/>
<path opacity="0.1" d="M135.32 486.95C131.659 487.572 127.967 487.993 124.26 488.21C124.04 483.21 123.91 479.77 123.91 479.77L135.03 477.53L135.32 486.95Z" fill="black"/>
<path opacity="0.1" d="M164.52 480.95C157.41 482.8 146.43 484.88 136.6 483.58L136.46 477.24L163.28 471.86C163.28 471.86 164.02 476.81 164.52 480.95Z" fill="black"/>
<path opacity="0.1" d="M136.42 484.74C95.42 491.74 57.87 471.67 57.87 471.67L58.23 464.87C58.23 464.87 59.16 387.78 56.58 381.87C54 375.96 51.99 345.99 53.45 341.39C54.91 336.79 48.12 267.81 48.12 267.81L47.02 239.81L6.76001 223.5L24.76 185.98C27.1912 180.719 29.2822 175.308 31.02 169.78C34.15 160.04 48.68 150.47 48.68 150.47C48.68 150.47 63.58 140.91 69.47 141.27C75.36 141.63 83.08 132.81 83.08 132.81C88.78 118.28 93.94 124.86 93.94 124.86C93.94 125.55 93.94 124.86 93.66 127.01C91.66 142.96 126 193.36 126.49 194.25L129.76 273.91L133.07 374.72L136.42 484.74Z" fill="black"/>
<path d="M135.32 484.74C94.32 491.74 56.76 471.67 56.76 471.67L57.13 464.87C57.13 464.87 58.06 387.78 55.47 381.87C52.88 375.96 50.88 345.99 52.35 341.39C53.82 336.79 47.02 267.81 47.02 267.81L45.91 239.81L5.63 223.44L23.63 185.92C26.0559 180.658 28.1468 175.247 29.89 169.72C33.01 159.98 47.55 150.41 47.55 150.41C47.55 150.41 62.45 140.85 68.33 141.21C74.21 141.57 81.94 132.75 81.94 132.75C87.65 118.22 93.94 124.8 93.94 124.8C93.94 125.49 93.34 125.8 93.66 126.95C98.06 142.42 124.9 193.3 125.39 194.19L128.7 273.85L132.01 374.66L135.32 484.74Z" fill="white"/>
<path opacity="0.1" d="M124.27 196.46C119.86 194.62 96.5 167.95 96.5 167.95V161.88C95.65 159.88 90.6 161.1 86.5 162.5L88.26 125.63L90.26 127.29C94.64 142.75 123.76 195.57 124.27 196.46Z" fill="black"/>
<path d="M125.38 194.25C120.96 192.41 97.6 165.74 97.6 165.74V159.67C96.75 157.67 91.7 158.89 87.6 160.29L89.37 123.42L91.37 125.08C95.76 140.54 124.89 193.37 125.38 194.25Z" fill="white"/>
<path opacity="0.1" d="M57.87 327.26C58.42 327.26 86.38 324.32 86.38 324.32C86.38 324.32 103.31 357.61 102.2 365.71C101.09 373.81 99.08 380.98 92.27 379.71C85.46 378.44 55.62 380.71 55.62 380.71L57.87 327.26Z" fill="black"/>
<path d="M56.76 325.05C57.31 325.05 85.27 322.11 85.27 322.11C85.27 322.11 102.19 355.41 101.09 363.5C99.99 371.59 97.96 378.77 91.16 377.5C84.36 376.23 54.51 378.5 54.51 378.5L56.76 325.05Z" fill="white"/>
<path d="M77.83 309.42C77.83 309.42 103.49 323.21 104.04 327.42C104.59 331.63 90.98 325.58 88.04 324.85C86.1049 324.384 84.1351 324.076 82.15 323.93L62.54 324.46L77.83 309.42Z" fill="#CF6F80"/>
<path opacity="0.1" d="M117.11 198.18C118.601 198.18 119.81 196.971 119.81 195.48C119.81 193.989 118.601 192.78 117.11 192.78C115.619 192.78 114.41 193.989 114.41 195.48C114.41 196.971 115.619 198.18 117.11 198.18Z" fill="black"/>
<path d="M117.11 197.08C118.601 197.08 119.81 195.871 119.81 194.38C119.81 192.889 118.601 191.68 117.11 191.68C115.619 191.68 114.41 192.889 114.41 194.38C114.41 195.871 115.619 197.08 117.11 197.08Z" fill="#3F3D56"/>
<path opacity="0.1" d="M122.08 315.06C123.571 315.06 124.78 313.851 124.78 312.36C124.78 310.869 123.571 309.66 122.08 309.66C120.589 309.66 119.38 310.869 119.38 312.36C119.38 313.851 120.589 315.06 122.08 315.06Z" fill="black"/>
<path d="M122.08 313.95C123.571 313.95 124.78 312.741 124.78 311.25C124.78 309.759 123.571 308.55 122.08 308.55C120.589 308.55 119.38 309.759 119.38 311.25C119.38 312.741 120.589 313.95 122.08 313.95Z" fill="#3F3D56"/>
<path opacity="0.1" d="M119.8 256.62C121.291 256.62 122.5 255.411 122.5 253.92C122.5 252.429 121.291 251.22 119.8 251.22C118.309 251.22 117.1 252.429 117.1 253.92C117.1 255.411 118.309 256.62 119.8 256.62Z" fill="black"/>
<path d="M119.8 255.52C121.291 255.52 122.5 254.311 122.5 252.82C122.5 251.329 121.291 250.12 119.8 250.12C118.309 250.12 117.1 251.329 117.1 252.82C117.1 254.311 118.309 255.52 119.8 255.52Z" fill="#3F3D56"/>
<path d="M182.04 323.37C182.04 323.37 183.88 326.13 182.04 327.42C180.2 328.71 182.22 331.83 182.22 331.83C182.22 331.83 177.63 334.52 179.65 336.94C181.67 339.36 180.39 350.29 180.39 350.29L174.87 359.43C174.87 359.43 175.2 365.32 175.22 373.28C175.22 385.7 174.49 403.16 170.45 411.12L171.01 476.43C171.01 476.43 151.68 483.49 135.5 481.34L133.1 376.54C133.1 376.54 136.6 317.11 137.89 305.71C138.645 299.792 138.952 293.825 138.81 287.86C138.81 287.86 138.26 270.02 136.41 261.74C136.41 261.74 134.41 225.87 134.21 215.94C134.12 211.19 134.37 197.33 134.65 184.15C134.96 169.74 135.31 156.15 135.31 156.15L131.66 127.27C131.66 127.27 135.31 126.9 136.41 128.37C136.903 128.83 137.439 129.242 138.01 129.6V129.6C144.31 133.86 166.57 146.96 166.57 146.96C166.57 146.96 178.89 151.86 181.84 158.88C184.79 165.9 186.84 170.88 188.27 172.88C189.7 174.88 190.48 184.28 190.48 184.28C190.48 184.28 194.72 201.58 198.03 204.51C201.34 207.44 203.76 226.08 203.76 226.08L174.51 249.08C174.51 249.08 171.94 287.34 171.39 288.82C170.84 290.3 182.04 323.37 182.04 323.37Z" fill="white"/>
<path d="M183.15 323.37C183.15 323.37 184.98 326.13 183.15 327.42C181.32 328.71 183.32 331.83 183.32 331.83C183.32 331.83 178.76 334.55 180.76 336.97C182.76 339.39 181.5 350.32 181.5 350.32L175.98 359.46C175.98 359.46 176.31 365.35 176.34 373.31C176.34 385.73 175.61 403.19 171.57 411.15L172.12 476.46C172.12 476.46 152.76 483.52 136.6 481.37L134.21 376.57C134.21 376.57 137.71 317.14 139 305.74C139.756 299.822 140.06 293.855 139.91 287.89C139.91 287.89 139.36 270.05 137.52 261.77C137.52 261.77 135.52 225.9 135.31 215.97C135.22 211.22 135.48 197.36 135.75 184.18C136.06 169.77 136.41 156.18 136.41 156.18L131.59 126.91C131.59 126.91 136.41 126.91 137.52 128.4C138.008 128.866 138.544 129.278 139.12 129.63C145.42 133.89 167.69 146.99 167.69 146.99C167.69 146.99 180 151.89 182.95 158.91C185.9 165.93 187.95 170.91 189.39 172.91C190.83 174.91 191.59 184.31 191.59 184.31C191.59 184.31 195.83 201.61 199.14 204.54C202.45 207.47 204.84 226.07 204.84 226.07L175.59 249.07C175.59 249.07 173.02 287.33 172.46 288.81C171.9 290.29 183.15 323.37 183.15 323.37Z" fill="white"/>
<path opacity="0.1" d="M148.12 164.67L150.76 172.37L136.86 186.37C137.17 171.97 137.52 158.37 137.52 158.37L132.7 129.1C132.7 129.1 137.52 129.1 138.63 130.59C139.117 131.055 139.653 131.464 140.23 131.81L152.05 165.91L148.12 164.67Z" fill="black"/>
<path d="M147.01 162.46L149.66 170.16L135.76 184.16C136.07 169.75 136.42 156.16 136.42 156.16L131.59 126.89C131.59 126.89 136.42 126.89 137.52 128.38C138.011 128.843 138.547 129.255 139.12 129.61L150.95 163.7L147.01 162.46Z" fill="white"/>
<path opacity="0.1" d="M147.01 86.2698C147.018 89.8733 146.451 93.455 145.33 96.8798C145.141 96.9093 144.948 96.9006 144.763 96.8542C144.577 96.8078 144.403 96.7247 144.25 96.6098C143.99 87.6098 139.56 79.1598 134.11 71.9698C132.58 69.7989 130.725 67.8764 128.61 66.2698C126.472 64.6639 123.812 63.9117 121.15 64.1598C118.15 64.5698 115.5 66.6098 112.47 66.8698C108.47 67.1998 104.89 64.4298 100.92 64.2898C99.3061 64.3051 97.714 64.6645 96.25 65.3439C94.7859 66.0233 93.4837 67.0072 92.43 68.2298C90.3444 70.6971 88.7949 73.5713 87.88 76.6698C86.3077 81.3682 85.4514 86.2765 85.34 91.2298C85.29 94.0298 85.02 97.5398 82.42 98.5598C82.6157 96.5006 82.3817 94.4231 81.7328 92.4591C81.0838 90.495 80.0341 88.6871 78.65 87.1498L78.59 87.0898C78.59 86.8098 78.59 86.5498 78.59 86.2698C78.5123 81.7274 79.34 77.215 81.0246 72.9958C82.7092 68.7766 85.217 64.9351 88.4019 61.6953C91.5867 58.4556 95.3848 55.8824 99.5746 54.1259C103.764 52.3695 108.262 51.4648 112.805 51.4648C117.348 51.4648 121.846 52.3695 126.035 54.1259C130.225 55.8824 134.023 58.4556 137.208 61.6953C140.393 64.9351 142.901 68.7766 144.585 72.9958C146.27 77.215 147.098 81.7274 147.02 86.2698H147.01Z" fill="black"/>
<path d="M126.97 31.9401C121.774 29.4958 115.863 29.0335 110.35 30.6401C107.58 31.4601 104.97 32.7901 102.16 33.4601C96.16 34.9101 89.16 33.3401 84.01 36.8501C81.15 38.8501 79.43 42.0101 77.83 45.0801L73.83 52.7001C71.65 56.8701 69.45 61.1101 68.54 65.7001C67.63 70.2901 68.18 75.4301 71.09 79.1201C73.21 81.8101 76.34 83.5001 78.64 86.0301C80.0179 87.569 81.0631 89.3759 81.7101 91.3376C82.3571 93.2993 82.592 95.3734 82.4 97.4301C85.01 96.4301 85.26 92.9101 85.32 90.1101C85.4314 85.1568 86.2877 80.2485 87.86 75.5501C88.7727 72.4507 90.3224 69.5761 92.41 67.1101C93.4645 65.8885 94.7669 64.9053 96.2308 64.226C97.6946 63.5467 99.2863 63.1867 100.9 63.1701C104.9 63.3101 108.49 66.0701 112.45 65.7401C115.45 65.4901 118.11 63.4401 121.13 63.0401C123.793 62.7882 126.454 63.5407 128.59 65.1501C130.704 66.7543 132.556 68.6772 134.08 70.8501C139.54 78.0401 143.97 86.4701 144.23 95.4901C145.36 96.3201 146.99 95.2401 147.55 93.9601C148.11 92.6801 148.13 91.1801 148.84 89.9601C149.66 88.5501 151.23 87.8001 152.46 86.7401C155.58 84.0501 156.36 79.5201 156.24 75.4101C156.12 71.3001 155.32 67.1301 156.1 63.0901C156.57 60.6101 157.63 58.2901 158.21 55.8401C158.79 53.3901 158.86 50.6401 157.49 48.5301C155.49 45.4301 151.28 44.8201 147.61 44.5301C143.44 44.1701 139.71 44.6301 137.05 41.1201C135.801 39.2885 134.396 37.5687 132.85 35.9801C132.32 35.4601 126.97 32.1601 126.97 31.9401Z" fill="#512E4E"/>
<path opacity="0.1" d="M18.28 242.82L7.83002 223.5L4.52002 253.31C4.52002 253.31 6.36002 266.55 5.99002 268.58C5.62002 270.61 13.53 288.81 13.53 288.81C13.53 288.81 39.66 335.35 50.33 337.75L86.38 311.99L76.82 299.85C76.82 299.85 73.51 298.56 72.68 299.85C72.68 299.85 54.93 269.31 53.09 267.1C51.25 264.89 51.61 260.48 51.61 260.48C51.61 260.48 48.85 257.54 49.77 254.78C50.69 252.02 44.44 242.45 44.44 242.45L50.14 237.12L18.28 242.82Z" fill="black"/>
<path d="M8.38 221.3L5.62 223.5L2.31 253.31C2.31 253.31 4.15 266.55 3.78 268.58C3.41 270.61 11.33 288.81 11.33 288.81C11.33 288.81 37.45 335.35 48.12 337.75L84.18 311.99L74.61 299.85C74.61 299.85 71.3 298.56 70.47 299.85C70.47 299.85 52.72 269.31 50.88 267.1C49.04 264.89 49.41 260.48 49.41 260.48C49.41 260.48 46.65 257.54 47.57 254.78C48.49 252.02 42.23 242.45 42.23 242.45L47.93 237.12L8.38 221.3Z" fill="white"/>
<path opacity="0.1" d="M179.65 338.08C181.65 340.51 180.39 351.42 180.39 351.42L174.87 360.56C174.87 360.56 175.2 366.46 175.22 374.41L165.94 377.31C165.101 377.572 164.212 377.63 163.347 377.478C162.481 377.326 161.665 376.97 160.965 376.439C160.265 375.907 159.703 375.216 159.324 374.423C158.946 373.63 158.763 372.758 158.79 371.88L160.39 320.27L182.04 328.55C180.2 329.83 182.22 332.97 182.22 332.97C182.22 332.97 177.63 335.65 179.65 338.08Z" fill="black"/>
<path d="M180.76 336.97C182.76 339.4 181.5 350.32 181.5 350.32L175.98 359.46C175.98 359.46 176.31 365.35 176.34 373.31L166.89 376.26C166.069 376.515 165.198 376.571 164.351 376.421C163.504 376.272 162.705 375.923 162.02 375.402C161.335 374.882 160.785 374.206 160.414 373.429C160.044 372.653 159.864 371.8 159.89 370.94L161.5 319.17L183.16 327.45C181.31 328.73 183.33 331.86 183.33 331.86C183.33 331.86 178.76 334.55 180.76 336.97Z" fill="white"/>
<path d="M187.93 312.37C187.93 312.37 186.46 321.76 182.78 322.31C179.1 322.86 177.45 337.5 173.78 336.98C170.11 336.46 172.54 323.37 172.67 320.83C172.8 318.29 168.67 307.77 171.76 305.38C174.85 302.99 184.63 305.38 184.63 305.38L187.93 312.37Z" fill="#CF6F80"/>
<path opacity="0.1" d="M195.76 240.06L202.7 226.06C202.7 226.06 205.46 236.73 205.46 242.43C205.46 248.13 209.32 248.69 209.32 248.69C209.32 248.69 213.55 253.69 211.32 257.33C209.09 260.97 208.19 270.03 208.19 270.03C208.19 270.03 208.92 287.32 205.61 289.71C202.3 292.1 201.61 297.81 201.61 297.81C201.61 297.81 195.53 308.66 195.72 311.24C195.91 313.82 187.26 331.29 187.26 331.29C187.26 331.29 191.49 309.58 166.84 300.2C166.84 300.2 166.65 292.83 168.49 290.81C170.33 288.79 173.2 287.87 171.4 277.66C169.6 267.45 170.88 255.25 170.88 252.8C170.88 250.35 176.4 235.07 176.4 235.07L195.76 240.06Z" fill="black"/>
<path d="M198.76 224.06L204.82 226.06C204.82 226.06 207.59 236.73 207.59 242.43C207.59 248.13 211.45 248.69 211.45 248.69C211.45 248.69 215.68 253.69 213.45 257.33C211.22 260.97 210.33 270.03 210.33 270.03C210.33 270.03 211.06 287.32 207.75 289.71C204.44 292.1 203.7 297.81 203.7 297.81C203.7 297.81 197.63 308.66 197.82 311.24C198.01 313.82 189.35 331.29 189.35 331.29C189.35 331.29 193.59 309.58 168.93 300.2C168.93 300.2 168.75 292.83 170.59 290.81C172.43 288.79 175.3 287.87 173.5 277.66C171.7 267.45 172.98 255.25 172.98 252.8C172.98 250.35 178.5 235.07 178.5 235.07L198.76 224.06Z" fill="white"/>
<path opacity="0.1" d="M64.91 586.93C64.91 586.93 74.57 580.86 80.91 585.27C87.25 589.68 64.91 586.93 64.91 586.93Z" fill="black"/>
<path opacity="0.1" d="M139.97 568.16C139.97 568.16 148.52 567.06 155.7 574.79C162.88 582.52 139.97 568.16 139.97 568.16Z" fill="black"/>
<g opacity="0.1">
<path opacity="0.1" d="M152.48 84.5501C151.25 85.6101 149.67 86.3701 148.85 87.7801C148.15 88.9901 148.13 90.4801 147.57 91.7801C147.01 93.0801 145.38 94.1401 144.25 93.3201C143.99 84.3201 139.55 75.8701 134.1 68.6701C132.576 66.4972 130.724 64.5743 128.61 62.9701C126.47 61.3609 123.806 60.6085 121.14 60.8601C118.14 61.2701 115.5 63.3101 112.47 63.5601C108.47 63.9001 104.88 61.1301 100.91 60.9901C99.2967 61.0061 97.7054 61.3669 96.2429 62.0481C94.7804 62.7294 93.4804 63.7154 92.43 64.9401C90.3424 67.4023 88.7926 70.2737 87.88 73.3701C86.3086 78.0687 85.4523 82.9769 85.34 87.9301C85.28 90.7201 85.02 94.2001 82.44 95.2401C82.5001 95.9788 82.5001 96.7213 82.44 97.4601C85.04 96.4601 85.3 92.9401 85.36 90.1401C85.4715 85.1868 86.3277 80.2785 87.9 75.5801C88.8127 72.4807 90.3624 69.606 92.45 67.1401C93.5025 65.9187 94.8032 64.9356 96.2654 64.2562C97.7276 63.5768 99.3178 63.2168 100.93 63.2001C104.93 63.3401 108.53 66.1001 112.49 65.7701C115.49 65.5201 118.15 63.4701 121.16 63.0701C123.826 62.8185 126.49 63.5709 128.63 65.1801C130.744 66.7842 132.596 68.7072 134.12 70.8801C139.57 78.0701 144.01 86.5001 144.27 95.5201C145.4 96.3501 147.03 95.2701 147.59 93.9901C148.15 92.7101 148.17 91.2101 148.87 89.9901C149.69 88.5801 151.27 87.8301 152.5 86.7701C155.62 84.0801 156.4 79.5501 156.28 75.4401C156.28 75.3101 156.28 75.1801 156.28 75.0601C156.09 78.6201 155.14 82.2501 152.48 84.5501Z" fill="black"/>
<path opacity="0.1" d="M78.66 83.84C76.36 81.31 73.22 79.62 71.11 76.94C69.3333 74.5675 68.3186 71.7116 68.2 68.75C67.8853 72.4509 68.9188 76.1409 71.11 79.14C73.22 81.83 76.36 83.52 78.66 86.05C80.8683 88.5247 82.1941 91.6616 82.43 94.97C82.5831 92.9566 82.3281 90.933 81.6803 89.0204C81.0325 87.1079 80.0052 85.3459 78.66 83.84V83.84Z" fill="black"/>
<path opacity="0.1" d="M158.23 53.6499C157.64 56.0999 156.59 58.4299 156.11 60.8999C155.826 62.5504 155.722 64.2269 155.8 65.8999C155.833 64.9469 155.937 63.9977 156.11 63.0599C156.59 60.5799 157.64 58.2599 158.23 55.8099C158.574 54.4586 158.685 53.0587 158.56 51.6699C158.498 52.337 158.388 52.9987 158.23 53.6499V53.6499Z" fill="black"/>
</g>
<path d="M751.67 338.72C751.67 338.72 735.16 256.58 741.48 246.36C741.48 246.36 741.71 236.86 741.33 224.75C741.33 224.29 741.33 223.83 741.33 223.36C742.442 224.102 743.601 224.77 744.8 225.36C750.623 228.352 757.308 229.215 763.7 227.8L758.7 222.23C757.5 220.9 756.25 219.46 755.99 217.7C755.73 215.94 756.45 214.37 757.07 212.8C761.82 200.8 762.07 185.71 752.92 176.55C745.19 168.85 743.31 158.91 734.92 151.88C728.79 146.73 725.42 139.18 722.24 131.88C719.55 125.71 716.84 119.49 715.3 112.95C714.1 107.84 713.62 102.55 711.97 97.5602C710.32 92.5702 707.23 87.7202 702.4 85.4902C700.68 84.7002 698.77 84.2502 697.2 83.2002C695.14 81.8102 693.9 79.5502 692.41 77.5702C684.84 67.5702 659.49 73.4602 647.49 77.5202C644.228 78.5426 641.207 80.2164 638.61 82.4402L638.72 82.2602C638.81 82.1102 638.92 81.9602 639.02 81.8102C637.707 82.8723 636.572 84.1384 635.66 85.5602C633.91 88.3302 633.18 91.5602 631.72 94.5602C629.96 98.1102 620.17 108.02 624.38 112.01C624.675 112.278 625.013 112.494 625.38 112.65C626.96 113.308 628.701 113.482 630.38 113.15L630.2 113.58C628.762 117.101 628.025 120.868 628.03 124.67C628.03 141.1 641.58 154.42 658.31 154.42C661.455 154.423 664.582 153.941 667.58 152.99C667.65 153.37 667.71 153.75 667.78 154.13C667.78 154.28 667.83 154.43 667.85 154.58L667.32 155.32C667.293 155.275 667.263 155.231 667.23 155.19L651.53 177.13C649.13 178.82 635.31 188.82 634.53 196.32C633.71 204.53 632.89 214.14 632.89 214.14L632.78 216.2C632.094 216.774 631.291 217.191 630.428 217.424C629.565 217.657 628.661 217.7 627.78 217.55C622.88 216.75 622.88 235.55 622.88 235.55C622.88 235.55 619.62 238.55 617.38 235.95C615.14 233.35 609.22 242.16 609.22 242.16L572.12 243.76L571.27 243.81L569.27 237.62C569.055 236.967 568.591 236.426 567.978 236.113C567.366 235.8 566.655 235.742 566 235.95C565.845 236.001 565.695 236.065 565.55 236.14L565.41 236.22L565.15 236.4L565.02 236.52C564.948 236.585 564.882 236.655 564.82 236.73L564.7 236.87L564.64 236.93C564.409 237.249 564.256 237.618 564.194 238.007C564.131 238.396 564.161 238.795 564.28 239.17L566 244.48C558.84 245.92 551.52 249.98 557.49 261.16L527.23 255.57L537.02 263.79L587.56 274.22C586.89 275.42 587.33 277.16 589.42 279.61C598.42 290.18 614.82 293.05 621.42 293.79C623.163 297.689 625.34 301.379 627.91 304.79L627.34 315.32C627.34 315.32 610.63 395.58 607.57 399.65C609.115 397.9 610.529 396.038 611.8 394.08C606.95 410.57 600.17 433.14 598.39 436.52C595.53 441.92 592.88 463.77 596.14 465.17C597.14 465.6 600 465.39 604.08 465.08V466.89L603.9 535.48C603.9 535.48 604.72 577.55 602.47 581.56C600.22 585.57 599.62 593.98 599.62 593.98C599.62 593.98 590.62 610.57 583.49 617.24C583.441 617.292 583.388 617.339 583.33 617.38L583.11 615.82C583.11 615.82 574.54 626.64 555.58 626.03C555.58 626.03 544.17 633.45 561.09 633.85C578.01 634.25 599.62 633.25 599.62 633.25C599.62 633.25 614.71 610.25 627.35 613.25V630.68H631.22V612.97C633.015 611.789 634.551 610.255 635.735 608.462C636.92 606.669 637.727 604.655 638.11 602.54C638.441 600.361 638.199 598.133 637.406 596.076C636.613 594.019 635.298 592.204 633.59 590.81C632.823 590.116 632.207 589.272 631.782 588.328C631.357 587.385 631.132 586.365 631.12 585.33L630.98 585.45C630.98 585.1 630.89 584.74 630.85 584.37C629.74 575.37 628.35 556.8 633.26 543.06C639.99 524.22 642.03 497.98 637.13 482.36C635.549 477.367 634.25 472.289 633.24 467.15C633.12 466.5 633.01 465.88 632.91 465.3C636.259 465.753 639.576 466.421 642.84 467.3C654.19 470.43 679.02 471.01 700.22 470.84C700.27 471.42 700.33 472.03 700.4 472.64C700.778 476.88 701.568 481.073 702.76 485.16C705.42 493.16 706.64 528.43 706.64 528.43C706.64 528.43 710.07 557.43 708.2 569.23C707.2 575.79 706.2 582.38 705.63 589V589.13C705.63 589.13 700.01 605.13 695.9 613.82C695.8 614.04 695.69 614.26 695.59 614.47C694.494 614.57 693.416 614.809 692.38 615.18C692.38 615.18 686.87 626.18 681.38 628C675.89 629.82 677.71 635.81 690.14 633.61C702.57 631.41 721.34 629.61 721.34 629.61L722.15 618.39L725.97 613.61L724.97 624.8L729.04 624L728.5 610.39L734.75 602.57C734.75 602.57 742.3 595.85 731.08 582.63V582.92C730.96 582.73 730.85 582.53 730.72 582.34V582.28C728.86 579.4 727.38 574.03 730.09 564.5C734.99 547.28 737.84 531.65 737.84 531.65C737.84 531.65 748.78 489.78 735.63 469.97H736.21C734.862 467.183 733.91 464.221 733.38 461.17C733.313 460.81 733.253 460.44 733.2 460.06C742.93 459.5 752.48 457.74 760.27 453.94C760.24 453.9 755.55 354.54 751.67 338.72ZM628.14 269.42V269.62L626.14 269.72L628.14 269.42ZM621.28 270.37C620.951 270.443 620.643 270.59 620.38 270.8C619.52 272.017 618.98 273.43 618.81 274.91L615.69 274.21C615.69 274.21 613.5 273.74 610.35 273.21L608.86 271.71C612.96 271.37 617.22 270.87 621.28 270.37V270.37Z" fill="url(#paint1_linear)"/>
<path d="M724.51 610.53L723.32 624.7L727.31 623.9L726.71 608.53L724.51 610.53Z" fill="#1D2366"/>
<path d="M633.48 543.25C628.67 556.95 630.03 575.44 631.11 584.42C631.51 587.74 631.88 589.76 631.88 589.76C631.88 589.76 624.69 606.14 624.09 606.76C623.49 607.38 602.93 619.93 602.93 619.93L588.56 628.32C588.56 628.32 573.98 621.93 580.97 619.73C582.398 619.157 583.685 618.28 584.74 617.16C591.74 610.51 600.53 593.98 600.53 593.98C600.53 593.98 601.13 585.59 603.33 581.6C605.53 577.61 604.73 535.68 604.73 535.68L604.9 467.33V458.42L632.25 458.62C632.423 461.645 632.817 464.653 633.43 467.62C634.412 472.741 635.684 477.803 637.24 482.78C642.06 498.37 640.06 524.48 633.48 543.25Z" fill="#FFB0B1"/>
<path opacity="0.1" d="M631.88 589.76C631.88 589.76 624.69 606.14 624.09 606.76C623.49 607.38 602.93 619.93 602.93 619.93L588.56 628.32C588.56 628.32 573.98 621.93 580.97 619.73C582.398 619.157 583.685 618.28 584.74 617.16L585.36 621.53L590.15 621.33L631.15 584.44C631.51 587.74 631.88 589.76 631.88 589.76Z" fill="black"/>
<path d="M631.38 585.37L590.15 622.51L585.36 622.71L584.36 615.71C584.36 615.71 575.98 626.49 557.36 625.89C557.36 625.89 546.18 633.28 562.75 633.68C579.32 634.08 600.48 633.08 600.48 633.08C600.48 633.08 615.26 610.08 627.63 613.08V630.45H631.43V612.92C633.197 611.731 634.705 610.196 635.863 608.409C637.021 606.622 637.806 604.619 638.17 602.52C638.499 600.358 638.266 598.149 637.494 596.103C636.721 594.057 635.436 592.245 633.76 590.84C633.012 590.139 632.414 589.291 632.005 588.351C631.596 587.41 631.383 586.396 631.38 585.37V585.37Z" fill="#1D2366"/>
<path d="M728.31 564.61C725.65 574.11 727.1 579.46 728.92 582.33V582.39C731.254 585.934 732.878 589.897 733.7 594.06L733.86 594.96L715.1 622.31L704.92 626.31C704.92 626.31 688.55 620.72 691.54 619.12C692.29 618.73 693.46 616.65 694.8 613.78C698.8 605.13 704.32 589.17 704.32 589.17V589.04C704.9 582.45 705.82 575.88 706.84 569.34C708.67 557.57 705.31 528.68 705.31 528.68C705.31 528.68 704.11 493.55 701.51 485.56C700.336 481.498 699.556 477.332 699.18 473.12C698.64 468.12 698.52 464 698.52 464C698.52 464 709.3 449 729.06 465.2C730.64 466.492 732.031 468 733.19 469.68C746.84 489.1 735.85 531.88 735.85 531.88C735.85 531.88 733.1 547.44 728.31 564.61Z" fill="#FFB0B1"/>
<path opacity="0.1" d="M733.89 594.96L715.13 622.31L704.95 626.31C704.95 626.31 688.58 620.72 691.57 619.12C692.32 618.73 693.49 616.65 694.83 613.78C701.76 613.72 705.35 620.32 705.35 620.32L714.13 618.92C714.13 618.92 725.71 596.16 728.31 594.77C730.91 593.38 728.71 584.38 728.71 584.38V582.09C728.78 582.17 728.84 582.26 728.92 582.34V582.4C731.254 585.943 732.878 589.907 733.7 594.07L733.89 594.96Z" fill="black"/>
<path d="M705.95 620.91C705.95 620.91 700.95 611.73 691.37 615.12C691.37 615.12 685.98 626.12 680.59 627.9C675.2 629.68 677 635.68 689.18 633.49C701.36 631.3 719.72 629.49 719.72 629.49L720.52 618.3L732.9 602.53C732.9 602.53 740.28 595.84 729.3 582.67V584.96C729.3 584.96 731.5 593.96 728.9 595.35C726.3 596.74 714.76 619.51 714.76 619.51L705.95 620.91Z" fill="#1D2366"/>
<path opacity="0.1" d="M632.28 458.6C632.453 461.625 632.847 464.633 633.46 467.6C622.2 465.95 611.75 466.77 604.9 467.31V458.4L632.28 458.6Z" fill="black"/>
<path opacity="0.1" d="M734.3 472.17C734.3 472.17 718.3 472.95 699.22 473.11C698.68 468.11 698.56 463.99 698.56 463.99C698.56 463.99 709.34 448.99 729.1 465.19C730.68 466.482 732.07 467.99 733.23 469.67C733.54 470.522 733.897 471.357 734.3 472.17V472.17Z" fill="black"/>
<path d="M734.3 470.37C734.3 470.37 664.22 473.76 642.86 467.77C621.5 461.78 600.33 466.97 597.14 465.58C593.95 464.19 596.54 442.42 599.34 437.03C602.14 431.64 617.5 377.13 617.5 377.13L632.28 300.07L647.85 295.78L648.95 295.47L676.08 287.99L695.96 282.5C695.96 282.5 735.49 436.83 732.1 448.21C730.869 452.568 730.67 457.152 731.52 461.6C732.038 464.637 732.973 467.589 734.3 470.37V470.37Z" fill="#1D2366"/>
<path d="M580.76 247.37C580.76 247.37 566.76 262.37 577.36 270.73C587.96 279.09 594.93 271.53 594.93 271.53L580.76 247.37Z" fill="#C7DAF5"/>
<path opacity="0.1" d="M580.76 247.37C580.76 247.37 566.76 262.37 577.36 270.73C587.96 279.09 594.93 271.53 594.93 271.53L580.76 247.37Z" fill="black"/>
<path d="M693.87 148.75C693.87 148.75 692.23 150.31 689.76 152.61C686.24 155.9 681.03 160.71 676.41 164.74C670.01 170.31 664.73 174.4 666.62 170.91C668.51 167.42 668.15 161.34 667.21 155.65C667.14 155.27 667.08 154.89 667.01 154.52C666.232 150.341 665.2 146.214 663.92 142.16C663.92 142.16 674.26 128.8 679.98 123.53C682.11 121.53 683.6 120.71 683.69 122.1C683.79 123.97 685.19 128.1 686.93 132.48C686.98 132.62 687.03 132.75 687.09 132.89C688.25 135.89 689.56 138.97 690.71 141.63C692.47 145.71 693.87 148.75 693.87 148.75Z" fill="#FFB0B1"/>
<path opacity="0.1" d="M687.09 132.89C686.118 138.116 683.761 142.986 680.264 146.99C676.767 150.993 672.258 153.984 667.21 155.65C666.415 151.085 665.316 146.578 663.92 142.16C663.92 142.16 683.39 117.01 683.69 122.1C683.76 124.03 685.28 128.31 687.09 132.89Z" fill="black"/>
<path opacity="0.1" d="M665.27 162.37L667.79 158.82C667.79 158.82 669.46 169 675.6 164.51C681.74 160.02 682.04 198.3 682.04 198.3L675.45 296.83L627.83 293.98L629.18 246.37L634.57 222.37L647.9 187.48L655.83 175.95L665.27 162.37Z" fill="black"/>
<path d="M682.04 198.91L676.04 288L675.41 297.44L648.86 295.85L647.86 295.79L627.86 294.59L629.21 246.97L634.6 222.97L647.93 188.08L655.86 176.55L665.3 162.92L667.82 159.38C667.82 159.38 669.49 169.56 675.63 165.07L675.76 164.98C681.76 161.18 682.04 198.91 682.04 198.91Z" fill="#1D2366"/>
<path d="M635.27 214.63C635.27 214.63 632.88 219.63 628.08 218.82C623.28 218.01 623.29 236.82 623.29 236.82C623.29 236.82 620.1 239.82 617.9 237.22C615.7 234.62 609.9 243.41 609.9 243.41L573.56 245.01C573.56 245.01 589.73 252.4 586.56 274.76C586.56 274.76 641.46 271.36 643.26 266.17C645.06 260.98 635.27 214.63 635.27 214.63Z" fill="white"/>
<path opacity="0.03" d="M635.27 214.63C635.27 214.63 632.88 219.63 628.08 218.82C623.28 218.01 623.29 236.82 623.29 236.82C623.29 236.82 620.1 239.82 617.9 237.22C615.7 234.62 609.9 243.41 609.9 243.41L573.56 245.01C573.56 245.01 589.73 252.4 586.56 274.76C586.56 274.76 641.46 271.36 643.26 266.17C645.06 260.98 635.27 214.63 635.27 214.63Z" fill="black"/>
<path d="M529.66 256.76L539.24 264.94L618.1 281.51L608.32 271.53L529.66 256.76Z" fill="white"/>
<path d="M665.42 165.52C664.11 167.52 660.36 177.76 657.23 186.7C654.62 194.15 652.44 200.7 652.44 200.7C652.44 200.7 647.35 233.84 644.75 239.83C642.15 245.82 643.56 269.18 643.56 269.18L633.87 326.87C633.87 326.87 629.48 356.62 622.7 374.39C616.01 391.88 608.56 400.08 608.33 400.34C611.33 396.28 627.68 316.34 627.68 316.34L633.08 215.52C633.08 215.52 633.87 205.94 634.67 197.75C635.47 189.56 651.67 178.38 651.67 178.38L667.29 156.17C668.86 158.27 667.81 161.93 665.42 165.52Z" fill="white"/>
<path d="M624.69 295.09C624.69 295.09 601.69 294.09 590.55 280.71C579.41 267.33 616.3 275.37 616.3 275.37L625.89 277.57L624.69 295.09Z" fill="#FFB0B1"/>
<path opacity="0.1" d="M732.1 448.22C730.869 452.578 730.67 457.162 731.52 461.61C706.43 463.39 679.59 456.61 679.59 456.61C674.59 461.21 661.42 467.99 661.42 467.99L654.24 378.99C649.65 366.99 647.85 304.12 647.85 304.12C647.85 304.12 648.26 300.83 648.85 295.9C648.85 295.78 648.85 295.65 648.9 295.53C650.69 281.76 654.24 255.91 655.98 252.42C658.38 247.62 648.6 234.85 648.6 234.85L653.05 196.9L653.59 192.32C662.97 188.13 670.16 174.75 670.16 174.75L675.68 165.08C681.68 161.23 681.99 198.96 681.99 198.96L675.99 288.05L695.87 282.56C695.87 282.56 735.49 436.84 732.1 448.22Z" fill="black"/>
<path d="M757.85 454.37C730.5 467.95 680.79 455.37 680.79 455.37C675.79 459.97 662.62 466.75 662.62 466.75L655.43 377.75C650.85 365.75 649.05 302.88 649.05 302.88C649.05 302.88 654.83 255.97 657.23 251.18C657.93 249.78 657.59 247.7 656.76 245.46C652.679 234.798 651.179 223.323 652.38 211.97L654.3 195.66L654.83 191.09C664.22 186.89 671.41 173.51 671.41 173.51L676.41 164.75L685.61 148.61L689.97 140.97L690.71 141.64L696.36 146.76C696.36 146.76 698.76 148.76 702.36 151.76C710.19 158.36 723.72 169.98 730.7 177.09C736.84 183.35 738.78 207.7 739.34 226.03C739.71 238.1 739.49 247.56 739.49 247.56C733.3 257.75 749.49 339.56 749.49 339.56C753.26 355.37 757.85 454.37 757.85 454.37Z" fill="white"/>
<path opacity="0.03" d="M705.35 173.31C705.35 173.31 686.58 209.04 688.76 222.62C690.94 236.2 697.14 251.57 694.15 255.16C693.123 256.52 691.795 257.624 690.27 258.386C688.745 259.147 687.064 259.546 685.36 259.55C682.36 259.75 674.36 265.34 674.36 265.94C674.36 266.54 666.97 266.54 660.36 269.34C653.75 272.14 643.99 273.73 643.99 273.73C643.99 273.73 624.99 273.13 623.22 274.93C621.45 276.73 619.63 287.5 623.42 296.09C627.21 304.68 631.42 311.09 634.6 312.26C637.78 313.43 657.96 306.67 674.33 305.07C690.7 303.47 708.47 290.5 708.47 290.5C708.47 290.5 728.04 283.5 731.47 271.73C734.9 259.96 727.28 195.27 727.28 195.27C727.28 195.27 721.52 165.12 705.35 173.31Z" fill="black"/>
<path opacity="0.03" d="M702.95 170.31C702.95 170.31 684.18 206.05 686.38 219.62C688.58 233.19 694.76 248.57 691.76 252.17C690.736 253.532 689.41 254.637 687.887 255.399C686.363 256.161 684.683 256.558 682.98 256.56C679.98 256.76 671.98 262.35 671.98 262.95C671.98 263.55 664.59 263.55 657.98 266.34C651.37 269.13 641.61 270.73 641.61 270.73C641.61 270.73 622.61 270.13 620.85 271.93C619.09 273.73 617.25 284.51 621.05 293.09C624.85 301.67 629.05 308.09 632.23 309.26C635.41 310.43 655.59 303.67 671.96 302.08C688.33 300.49 706.1 287.5 706.1 287.5C706.1 287.5 725.66 280.5 729.05 268.74C732.44 256.98 724.86 192.27 724.86 192.27C724.86 192.27 719.12 162.13 702.95 170.31Z" fill="black"/>
<path d="M704.76 171.51C704.76 171.51 685.99 207.25 688.19 220.82C690.39 234.39 696.57 249.77 693.58 253.36C692.556 254.725 691.229 255.833 689.704 256.596C688.178 257.36 686.496 257.758 684.79 257.76C681.79 257.96 673.79 263.55 673.79 264.14C673.79 264.73 666.41 264.74 659.79 267.54C653.17 270.34 643.42 271.93 643.42 271.93C643.42 271.93 624.42 271.33 622.65 273.13C620.88 274.93 619.06 285.71 622.85 294.29C626.64 302.87 630.85 309.29 634.03 310.46C637.21 311.63 657.39 304.87 673.76 303.27C690.13 301.67 707.9 288.7 707.9 288.7C707.9 288.7 727.47 281.7 730.9 269.93C734.33 258.16 726.76 193.47 726.76 193.47C726.76 193.47 720.92 163.37 704.76 171.51Z" fill="white"/>
<path opacity="0.1" d="M704.35 267.37C704.35 267.37 689.35 264.37 694.57 269.37C699.79 274.37 699.76 278.75 706.15 278.55C712.54 278.35 704.35 267.37 704.35 267.37Z" fill="black"/>
<path opacity="0.1" d="M729.7 374.95C729.7 374.95 722.92 379.54 735.89 390.12C748.86 400.7 729.7 374.95 729.7 374.95Z" fill="black"/>
<path opacity="0.1" d="M716.76 412.68C716.76 413.28 714.36 434.68 723.34 440.03C732.32 445.38 716.76 412.68 716.76 412.68Z" fill="black"/>
<path d="M574.18 244.96C566.94 245.21 551.3 247.42 559.41 262.55C566.58 275.94 578.63 266.99 585.41 260.2C583.756 253.869 579.737 248.415 574.18 244.96V244.96Z" fill="#FFB0B1"/>
<path d="M585.5 260.08L585.8 259.77L585.5 260.08Z" fill="#FFB0B1"/>
<path opacity="0.1" d="M702.36 152.37C694.68 157.62 688.24 162.05 686.98 162.97C683.54 165.52 676.98 180.49 672.75 188.13C669.38 194.28 658.43 195.86 654.3 196.25L654.83 191.68C664.22 187.48 671.41 174.1 671.41 174.1L689.97 141.56L696.36 147.37C696.36 147.37 698.76 149.37 702.36 152.37Z" fill="black"/>
<path d="M702.36 151.77C694.68 157.02 688.24 161.45 686.98 162.38C683.54 164.92 676.98 179.89 672.75 187.53C669.38 193.68 658.43 195.26 654.3 195.65L654.83 191.08C664.22 186.88 671.41 173.5 671.41 173.5L689.97 140.96L696.36 146.75C696.36 146.75 698.76 148.73 702.36 151.77Z" fill="#DCE7FF"/>
<path d="M687.58 126.29C687.584 132.293 685.764 138.156 682.36 143.1C678.34 148.947 672.358 153.158 665.498 154.971C658.639 156.784 651.356 156.077 644.973 152.98C638.59 149.883 633.528 144.601 630.706 138.091C627.885 131.581 627.49 124.275 629.594 117.499C631.698 110.724 636.162 104.926 642.174 101.16C648.187 97.3933 655.351 95.9069 662.366 96.9704C669.381 98.0339 675.782 101.577 680.408 106.956C685.034 112.336 687.579 119.195 687.58 126.29V126.29Z" fill="#FFB0B1"/>
<path opacity="0.1" d="M739.34 226.04C735.279 223.542 731.972 219.989 729.77 215.76C728.1 212.46 726.99 208.65 724.14 206.31C721.57 204.21 718.14 203.7 714.94 202.76C704.42 199.65 695.6 190.05 695.27 179.09C695.11 173.93 696.72 168.78 695.99 163.67C695.575 160.778 694.425 158.04 692.65 155.72C691.769 154.61 690.802 153.57 689.76 152.61C688.36 151.29 686.89 150.01 685.61 148.61C684.804 147.743 684.099 146.787 683.51 145.76C683.034 144.919 682.649 144.031 682.36 143.11C680.36 136.99 682.18 129.73 679.98 123.54L679.86 123.2C679.03 121 677.34 118.8 674.99 118.63C672.64 118.46 670.63 120.41 668.39 121.28C663.7 123.1 658.64 120 654.73 116.84C650.82 113.68 646.41 110.07 641.44 110.77C638.15 111.24 635.55 113.48 632.52 114.64C631.836 114.905 631.13 115.109 630.41 115.25C632.974 108.855 637.686 103.553 643.734 100.254C649.783 96.9552 656.792 95.8661 663.557 97.1736C670.321 98.4811 676.42 102.104 680.803 107.419C685.187 112.734 687.583 119.41 687.58 126.3C687.583 128.38 687.365 130.455 686.93 132.49C686.98 132.63 687.03 132.76 687.09 132.9C688.25 135.9 689.56 138.98 690.71 141.64L696.36 146.76C696.36 146.76 698.76 148.76 702.36 151.76C710.19 158.36 723.72 169.98 730.7 177.09C736.84 183.37 738.76 207.71 739.34 226.04Z" fill="black"/>
<path d="M632.17 96.3702C633.6 93.4602 634.31 90.2002 636.02 87.4402C638.53 83.4402 642.91 80.8801 647.41 79.3301C659.16 75.2801 683.99 69.4001 691.41 79.3301C692.87 81.3301 694.08 83.5502 696.1 84.9302C697.64 85.9802 699.5 86.4302 701.19 87.2202C705.92 89.4402 708.94 94.2802 710.55 99.2202C712.16 104.16 712.64 109.46 713.82 114.55C715.33 121.08 717.98 127.27 720.62 133.42C723.73 140.68 727.03 148.21 733.03 153.34C741.22 160.34 743.03 170.25 750.63 177.93C759.63 187.05 759.34 202.1 754.7 214.05C754.09 215.62 753.4 217.26 753.64 218.93C753.88 220.6 755.12 222.12 756.29 223.45L761.21 229C749.57 231.81 736.4 225.73 730.98 215.06C729.31 211.76 728.2 207.96 725.34 205.61C722.78 203.51 719.34 203.01 716.15 202.07C705.63 198.95 696.81 189.34 696.48 178.38C696.32 173.23 697.93 168.08 697.2 162.98C696.794 160.069 695.64 157.312 693.85 154.98C691.1 151.39 686.95 148.98 684.71 144.98C680.92 138.29 683.8 129.6 681.07 122.42C680.23 120.22 678.55 118.02 676.2 117.85C673.85 117.68 671.84 119.63 669.59 120.5C664.91 122.32 659.85 119.23 655.94 116.06C652.03 112.89 647.62 109.29 642.64 110C639.35 110.46 636.76 112.7 633.73 113.87C631.49 114.73 626.95 115.5 624.99 113.61C620.85 109.8 630.44 99.9302 632.17 96.3702Z" fill="#591D4B"/>
<path opacity="0.1" d="M733.76 211.76C732.08 208.46 730.98 204.66 728.12 202.32C725.56 200.22 722.12 199.71 718.92 198.77C708.41 195.66 699.59 186.05 699.25 175.09C699.09 169.94 700.7 164.78 699.98 159.68C699.561 156.787 698.408 154.05 696.63 151.73C693.87 148.14 689.72 145.73 687.49 141.73C683.7 135.05 686.58 126.36 683.84 119.17C683.01 116.98 681.32 114.78 678.98 114.6C676.64 114.42 674.61 116.39 672.37 117.26C667.69 119.08 662.62 115.98 658.72 112.82C654.82 109.66 650.39 106.05 645.42 106.75C642.13 107.22 639.53 109.46 636.51 110.62C634.27 111.48 629.72 112.26 627.76 110.37C623.64 106.37 633.23 96.5201 634.95 92.9801C636.38 90.0601 637.09 86.8101 638.81 84.0501C638.9 83.9001 639 83.7501 639.1 83.6001C637.813 84.6659 636.703 85.9281 635.81 87.3401C634.1 90.1001 633.39 93.3401 631.96 96.2701C630.23 99.8101 620.64 109.69 624.77 113.66C626.77 115.56 631.27 114.78 633.51 113.92C636.51 112.75 639.13 110.51 642.42 110.05C647.42 109.34 651.82 112.95 655.72 116.11C659.62 119.27 664.72 122.37 669.38 120.55C671.62 119.68 673.58 117.72 675.98 117.9C678.38 118.08 679.98 120.27 680.85 122.47C683.58 129.65 680.7 138.34 684.49 145.03C686.73 148.96 690.88 151.42 693.63 155.03C695.42 157.362 696.574 160.119 696.98 163.03C697.71 168.13 696.1 173.28 696.26 178.43C696.59 189.43 705.41 199 715.93 202.12C719.1 203.06 722.56 203.56 725.12 205.66C727.99 208.01 729.12 211.81 730.76 215.11C736.18 225.78 749.35 231.86 760.99 229.05L758.67 226.43C748.58 226.58 738.37 220.84 733.76 211.76Z" fill="black"/>
<path opacity="0.1" d="M664.82 166.12C663.51 168.12 659.76 178.36 656.63 187.3C653.7 186.16 651.04 178.89 651.04 178.89L666.66 156.67C668.26 158.87 667.21 162.52 664.82 166.12Z" fill="black"/>
<path d="M665.42 165.52C664.11 167.52 660.36 177.76 657.23 186.7C654.3 185.57 651.64 178.29 651.64 178.29L667.26 156.08C668.86 158.27 667.81 161.93 665.42 165.52Z" fill="#DCE7FF"/>
<path d="M574.6 267.68L565.94 240.37C565.837 240.05 565.799 239.713 565.827 239.379C565.855 239.044 565.949 238.718 566.103 238.42C566.257 238.122 566.469 237.857 566.726 237.641C566.983 237.424 567.28 237.261 567.6 237.16V237.16C568.245 236.959 568.942 237.02 569.542 237.331C570.141 237.642 570.593 238.177 570.8 238.82L579.46 266.1L578.6 271.81L574.6 267.68Z" fill="#BE8B87"/>
<path opacity="0.1" d="M566.76 237.97C567.406 237.766 568.106 237.826 568.708 238.137C569.31 238.448 569.763 238.985 569.97 239.63L578.63 266.91L577.98 271.19L578.61 271.85L579.47 266.14L570.76 238.86C570.553 238.217 570.101 237.682 569.502 237.371C568.902 237.06 568.204 236.999 567.56 237.2V237.2C567.018 237.376 566.55 237.728 566.23 238.2C566.4 238.109 566.577 238.032 566.76 237.97V237.97Z" fill="white"/>
<path d="M574.6 267.68L579.46 266.14L578.75 270.82L578.6 271.85L577.18 270.37L574.6 267.68Z" fill="#EFC8C4"/>
<path d="M577.18 270.37C577.265 270.263 577.37 270.175 577.49 270.11C577.56 270.066 577.642 270.042 577.725 270.042C577.808 270.042 577.89 270.066 577.96 270.11C578.028 270.192 578.085 270.283 578.13 270.38C578.196 270.49 578.286 270.584 578.393 270.655C578.501 270.726 578.623 270.772 578.75 270.79L578.6 271.79L577.18 270.37Z" fill="#727A9C"/>
<path d="M565.89 250.07C565.89 250.07 583.26 249.97 579.17 257.36C575.08 264.75 568.69 265.64 568.69 265.64L565.89 250.07Z" fill="#FFB0B1"/>
<defs>
<linearGradient id="paint0_linear" x1="108.33" y1="641.87" x2="108.33" y2="26.5299" gradientUnits="userSpaceOnUse">
<stop stop-color="#808080" stop-opacity="0.25"/>
<stop offset="0.54" stop-color="#808080" stop-opacity="0.12"/>
<stop offset="1" stop-color="#808080" stop-opacity="0.1"/>
</linearGradient>
<linearGradient id="paint1_linear" x1="222967" y1="464149" x2="222967" y2="148290" gradientUnits="userSpaceOnUse">
<stop stop-color="#808080" stop-opacity="0.25"/>
<stop offset="0.54" stop-color="#808080" stop-opacity="0.12"/>
<stop offset="1" stop-color="#808080" stop-opacity="0.1"/>
</linearGradient>
</defs>
</svg>
